<svg xmlns="http://www.w3.org/2000/svg" width="53.749" height="52.92" viewBox="0 0 53.749 52.92">
  <path id="Icon_ionic-logo-linkedin" data-name="Icon ionic-logo-linkedin" d="M53.95,4.5H9.092A4.358,4.358,0,0,0,4.5,8.622V52.885A4.693,4.693,0,0,0,9.092,57.42H53.936a4.45,4.45,0,0,0,4.312-4.535V8.622A4.091,4.091,0,0,0,53.95,4.5ZM21.161,48.611h-7.7V25.039h7.7ZM17.577,21.455h-.056a3.92,3.92,0,0,1-4.06-4.067,3.946,3.946,0,0,1,4.158-4.067,3.935,3.935,0,0,1,4.116,4.067A3.946,3.946,0,0,1,17.577,21.455ZM49.3,48.611H41.6V35.723c0-3.088-1.12-5.2-3.906-5.2a4.206,4.206,0,0,0-3.948,2.8,5.032,5.032,0,0,0-.266,1.861V48.611h-7.7V25.039h7.7V28.32a7.813,7.813,0,0,1,6.944-3.832c5.054,0,8.876,3.281,8.876,10.352V48.611Z" transform="translate(-4.5 -4.5)" fill="#0e76a8"/>
</svg>
