<svg xmlns="http://www.w3.org/2000/svg" width="60.796" height="59.277" viewBox="0 0 60.796 59.277">
  <path id="Icon_awesome-github" data-name="Icon awesome-github" d="M20.335,48.292c0,.245-.282.441-.637.441-.4.037-.686-.159-.686-.441,0-.245.282-.441.637-.441C20.016,47.814,20.335,48.01,20.335,48.292Zm-3.812-.552c-.086.245.159.527.527.6a.575.575,0,0,0,.76-.245c.074-.245-.159-.527-.527-.637A.629.629,0,0,0,16.523,47.74Zm5.418-.208c-.355.086-.6.319-.564.6.037.245.355.4.723.319s.6-.319.564-.564S22.3,47.5,21.94,47.532ZM30.006.562C13,.562,0,13.469,0,30.47A30.73,30.73,0,0,0,20.776,59.789c1.569.282,2.12-.686,2.12-1.483,0-.76-.037-4.952-.037-7.526,0,0-8.58,1.839-10.382-3.653,0,0-1.4-3.567-3.407-4.486,0,0-2.807-1.924.2-1.888A6.47,6.47,0,0,1,14,43.916c2.684,4.731,7.183,3.371,8.935,2.562a6.812,6.812,0,0,1,1.961-4.131C18.043,41.587,11.13,40.594,11.13,28.8a9.289,9.289,0,0,1,2.893-7.219,11.581,11.581,0,0,1,.319-8.323c2.562-.8,8.457,3.309,8.457,3.309a28.956,28.956,0,0,1,15.4,0s5.9-4.118,8.457-3.309a11.575,11.575,0,0,1,.319,8.323c1.961,2.17,3.162,3.861,3.162,7.219,0,11.828-7.219,12.772-14.071,13.544,1.128.968,2.084,2.807,2.084,5.687,0,4.131-.037,9.242-.037,10.247,0,.8.564,1.765,2.12,1.483C52.485,55.7,60.8,44.063,60.8,30.47,60.8,13.469,47.006.562,30.006.562ZM11.914,42.838c-.159.123-.123.4.086.637.2.2.478.282.637.123.159-.123.123-.4-.086-.637C12.355,42.764,12.073,42.678,11.914,42.838Zm-1.324-.993c-.086.159.037.355.282.478a.365.365,0,0,0,.527-.086c.086-.159-.037-.355-.282-.478C10.872,41.685,10.676,41.722,10.59,41.845Zm3.971,4.364c-.2.159-.123.527.159.76.282.282.637.319.8.123.159-.159.086-.527-.159-.76C15.089,46.049,14.721,46.012,14.562,46.208Zm-1.4-1.8c-.2.123-.2.441,0,.723s.527.4.686.282a.559.559,0,0,0,0-.76C13.679,44.37,13.36,44.247,13.164,44.406Z" transform="translate(0 -0.563)" fill="#143d59"/>
</svg>
