<svg xmlns="http://www.w3.org/2000/svg" width="57.856" height="59.277" viewBox="0 0 57.856 59.277">
  <path id="Icon_simple-instagram" data-name="Icon simple-instagram" d="M28.928,0C21.069,0,20.088.037,17,.178A20.885,20.885,0,0,0,9.98,1.556,14.136,14.136,0,0,0,4.855,4.974a14.5,14.5,0,0,0-3.336,5.251A22.259,22.259,0,0,0,.174,17.42C.029,20.581,0,21.587,0,29.638S.036,38.7.174,41.857a22.338,22.338,0,0,0,1.345,7.195A14.576,14.576,0,0,0,4.855,54.3,14.116,14.116,0,0,0,9.98,57.721,20.911,20.911,0,0,0,17,59.1c3.086.148,4.067.178,11.926.178s8.84-.037,11.926-.178a20.959,20.959,0,0,0,7.022-1.378A14.188,14.188,0,0,0,53,54.3a14.514,14.514,0,0,0,3.336-5.251,22.338,22.338,0,0,0,1.345-7.195c.145-3.161.174-4.167.174-12.218s-.036-9.057-.174-12.218a22.389,22.389,0,0,0-1.345-7.195A14.588,14.588,0,0,0,53,4.974a14.065,14.065,0,0,0-5.125-3.418A20.837,20.837,0,0,0,40.853.178C37.768.03,36.787,0,28.928,0Zm0,5.335c7.721,0,8.642.04,11.692.175a15.606,15.606,0,0,1,5.369,1.025A8.966,8.966,0,0,1,49.32,8.748a9.182,9.182,0,0,1,2.16,3.411,16.715,16.715,0,0,1,1,5.5c.137,3.127.169,4.065.169,11.979s-.036,8.854-.178,11.979a17.036,17.036,0,0,1-1.015,5.5,9.436,9.436,0,0,1-2.167,3.413,9.006,9.006,0,0,1-3.327,2.213,15.753,15.753,0,0,1-5.388,1.02c-3.071.141-3.975.173-11.713.173s-8.645-.037-11.713-.183a16.062,16.062,0,0,1-5.39-1.04,8.941,8.941,0,0,1-3.324-2.22,9.023,9.023,0,0,1-2.17-3.408,17.18,17.18,0,0,1-1.012-5.52C5.137,38.453,5.1,37.492,5.1,29.6s.039-8.857.147-12.006a17.16,17.16,0,0,1,1.012-5.518,8.809,8.809,0,0,1,2.17-3.411,8.54,8.54,0,0,1,3.324-2.218,15.679,15.679,0,0,1,5.354-1.04c3.074-.111,3.978-.148,11.713-.148l.108.074Zm0,9.084A15.039,15.039,0,0,0,14.073,29.638,15.039,15.039,0,0,0,28.928,44.858,15.039,15.039,0,0,0,43.782,29.638,15.039,15.039,0,0,0,28.928,14.419Zm0,25.1a9.882,9.882,0,1,1,9.643-9.879A9.76,9.76,0,0,1,28.928,39.518Zm18.914-25.7a3.472,3.472,0,1,1-3.471-3.554A3.517,3.517,0,0,1,47.842,13.819Z" fill="#143d59"/>
</svg>
