<svg xmlns="http://www.w3.org/2000/svg" width="60.773" height="59.474" viewBox="0 0 60.773 59.474">
  <path id="Icon_awesome-facebook" data-name="Icon awesome-facebook" d="M61.335,30.48A30.15,30.15,0,0,0,30.949.563,30.15,30.15,0,0,0,.563,30.48,30.075,30.075,0,0,0,26.2,60.036V39.129H18.482V30.48H26.2V23.889c0-7.5,4.533-11.639,11.477-11.639a47.474,47.474,0,0,1,6.8.584v7.359H40.648c-3.774,0-4.951,2.307-4.951,4.672V30.48h8.427l-1.348,8.648H35.7V60.036A30.075,30.075,0,0,0,61.335,30.48Z" transform="translate(-0.563 -0.563)" fill="#143d59"/>
</svg>
